<mxfile host="drawio-plugin" agent="Mozilla/5.0 (X11; Linux x86_64) AppleWebKit/537.36 (KHTML, like Gecko) Chrome/122.0.0.0 Safari/537.36" modified="2024-09-04T12:50:26.546Z" version="22.1.22" etag="wIDz6H00g7rf5Tmq2wCp" type="embed">
  <diagram id="C5RBs43oDa-KdzZeNtuy" name="Page-1">
    <mxGraphModel dx="1554" dy="478" grid="1" gridSize="10" guides="1" tooltips="1" connect="1" arrows="1" fold="1" page="1" pageScale="1" pageWidth="827" pageHeight="1169" math="0" shadow="0">
      <root>
        <mxCell id="WIyWlLk6GJQsqaUBKTNV-0" />
        <mxCell id="WIyWlLk6GJQsqaUBKTNV-1" parent="WIyWlLk6GJQsqaUBKTNV-0" />
        <mxCell id="Dx4pvagE7vBGZVSSWT-O-0" style="edgeStyle=orthogonalEdgeStyle;rounded=0;orthogonalLoop=1;jettySize=auto;html=1;" parent="WIyWlLk6GJQsqaUBKTNV-1" source="nfv_wwdXfXc1_VH7iOFV-0" target="Cddfaaqkk3JFuBGHHAQz-0" edge="1">
          <mxGeometry relative="1" as="geometry" />
        </mxCell>
        <mxCell id="Dx4pvagE7vBGZVSSWT-O-4" style="edgeStyle=orthogonalEdgeStyle;rounded=0;orthogonalLoop=1;jettySize=auto;html=1;" parent="WIyWlLk6GJQsqaUBKTNV-1" source="nfv_wwdXfXc1_VH7iOFV-0" target="Cddfaaqkk3JFuBGHHAQz-6" edge="1">
          <mxGeometry relative="1" as="geometry">
            <Array as="points">
              <mxPoint x="630" y="260" />
            </Array>
          </mxGeometry>
        </mxCell>
        <mxCell id="nfv_wwdXfXc1_VH7iOFV-0" value="Client" style="swimlane;fontStyle=1;align=center;verticalAlign=top;childLayout=stackLayout;horizontal=1;startSize=26;horizontalStack=0;resizeParent=1;resizeParentMax=0;resizeLast=0;collapsible=1;marginBottom=0;whiteSpace=wrap;html=1;fontFamily=Helvetica;fontSize=12;textShadow=0;labelBorderColor=none;spacingTop=0;" parent="WIyWlLk6GJQsqaUBKTNV-1" vertex="1">
          <mxGeometry x="136" y="220" width="160" height="130" as="geometry" />
        </mxCell>
        <mxCell id="nfv_wwdXfXc1_VH7iOFV-3" value="&lt;div style=&quot;font-size: 12px;&quot;&gt;main&lt;/div&gt;" style="text;strokeColor=none;fillColor=none;align=left;verticalAlign=top;spacingLeft=4;spacingRight=4;overflow=hidden;rotatable=0;points=[[0,0.5],[1,0.5]];portConstraint=eastwest;whiteSpace=wrap;html=1;fontFamily=Helvetica;fontSize=12;textShadow=0;labelBorderColor=none;horizontal=1;spacingTop=0;" parent="nfv_wwdXfXc1_VH7iOFV-0" vertex="1">
          <mxGeometry y="26" width="160" height="104" as="geometry" />
        </mxCell>
        <mxCell id="uftcxJf9mHdkzfCCdiwy-14" style="edgeStyle=orthogonalEdgeStyle;rounded=0;orthogonalLoop=1;jettySize=auto;html=1;entryX=0;entryY=0.5;entryDx=0;entryDy=0;" parent="WIyWlLk6GJQsqaUBKTNV-1" source="nfv_wwdXfXc1_VH7iOFV-4" target="nfv_wwdXfXc1_VH7iOFV-21" edge="1">
          <mxGeometry relative="1" as="geometry" />
        </mxCell>
        <mxCell id="uftcxJf9mHdkzfCCdiwy-15" style="edgeStyle=orthogonalEdgeStyle;rounded=0;orthogonalLoop=1;jettySize=auto;html=1;entryX=1;entryY=0.5;entryDx=0;entryDy=0;" parent="WIyWlLk6GJQsqaUBKTNV-1" source="nfv_wwdXfXc1_VH7iOFV-4" target="nfv_wwdXfXc1_VH7iOFV-17" edge="1">
          <mxGeometry relative="1" as="geometry" />
        </mxCell>
        <mxCell id="nfv_wwdXfXc1_VH7iOFV-4" value="Interface&lt;div style=&quot;font-size: 12px;&quot;&gt;AbstractFactory&lt;/div&gt;" style="swimlane;fontStyle=0;childLayout=stackLayout;horizontal=1;startSize=40;fillColor=none;horizontalStack=0;resizeParent=1;resizeParentMax=0;resizeLast=0;collapsible=1;marginBottom=0;whiteSpace=wrap;html=1;fontFamily=Helvetica;fontSize=12;textShadow=0;labelBorderColor=none;spacingTop=0;" parent="WIyWlLk6GJQsqaUBKTNV-1" vertex="1">
          <mxGeometry x="300" y="300" width="256" height="92" as="geometry" />
        </mxCell>
        <mxCell id="nfv_wwdXfXc1_VH7iOFV-6" value="createproductA():ProductA" style="text;strokeColor=none;fillColor=none;align=left;verticalAlign=top;spacingLeft=4;spacingRight=4;overflow=hidden;rotatable=0;points=[[0,0.5],[1,0.5]];portConstraint=eastwest;whiteSpace=wrap;html=1;fontFamily=Helvetica;fontSize=12;textShadow=0;labelBorderColor=none;horizontal=1;spacingTop=0;" parent="nfv_wwdXfXc1_VH7iOFV-4" vertex="1">
          <mxGeometry y="40" width="256" height="26" as="geometry" />
        </mxCell>
        <mxCell id="nfv_wwdXfXc1_VH7iOFV-5" value="createproductB():ProductB" style="text;strokeColor=none;fillColor=none;align=left;verticalAlign=top;spacingLeft=4;spacingRight=4;overflow=hidden;rotatable=0;points=[[0,0.5],[1,0.5]];portConstraint=eastwest;whiteSpace=wrap;html=1;fontFamily=Helvetica;fontSize=12;textShadow=0;labelBorderColor=none;horizontal=1;spacingTop=0;" parent="nfv_wwdXfXc1_VH7iOFV-4" vertex="1">
          <mxGeometry y="66" width="256" height="26" as="geometry" />
        </mxCell>
        <mxCell id="Cddfaaqkk3JFuBGHHAQz-4" style="edgeStyle=orthogonalEdgeStyle;rounded=0;orthogonalLoop=1;jettySize=auto;html=1;entryX=0.5;entryY=1;entryDx=0;entryDy=0;fontFamily=Helvetica;fontSize=12;textShadow=0;labelBorderColor=none;horizontal=1;spacingTop=0;" parent="WIyWlLk6GJQsqaUBKTNV-1" source="nfv_wwdXfXc1_VH7iOFV-12" target="Cddfaaqkk3JFuBGHHAQz-0" edge="1">
          <mxGeometry relative="1" as="geometry" />
        </mxCell>
        <mxCell id="nfv_wwdXfXc1_VH7iOFV-12" value="ProductA2" style="html=1;whiteSpace=wrap;fontFamily=Helvetica;fontSize=12;textShadow=0;labelBorderColor=none;horizontal=1;spacingTop=0;fillColor=#e1d5e7;strokeColor=#9673a6;" parent="WIyWlLk6GJQsqaUBKTNV-1" vertex="1">
          <mxGeometry x="70" y="470" width="110" height="50" as="geometry" />
        </mxCell>
        <mxCell id="Cddfaaqkk3JFuBGHHAQz-5" style="edgeStyle=orthogonalEdgeStyle;rounded=0;orthogonalLoop=1;jettySize=auto;html=1;entryX=0.5;entryY=1;entryDx=0;entryDy=0;fontFamily=Helvetica;fontSize=12;textShadow=0;labelBorderColor=none;horizontal=1;spacingTop=0;" parent="WIyWlLk6GJQsqaUBKTNV-1" source="nfv_wwdXfXc1_VH7iOFV-13" target="Cddfaaqkk3JFuBGHHAQz-0" edge="1">
          <mxGeometry relative="1" as="geometry" />
        </mxCell>
        <mxCell id="nfv_wwdXfXc1_VH7iOFV-13" value="ProductA1" style="html=1;whiteSpace=wrap;fontFamily=Helvetica;fontSize=12;textShadow=0;labelBorderColor=none;horizontal=1;spacingTop=0;fillColor=#d5e8d4;strokeColor=#82b366;" parent="WIyWlLk6GJQsqaUBKTNV-1" vertex="1">
          <mxGeometry x="260" y="470" width="110" height="50" as="geometry" />
        </mxCell>
        <mxCell id="uftcxJf9mHdkzfCCdiwy-4" style="edgeStyle=orthogonalEdgeStyle;rounded=0;orthogonalLoop=1;jettySize=auto;html=1;" parent="WIyWlLk6GJQsqaUBKTNV-1" source="nfv_wwdXfXc1_VH7iOFV-14" target="Cddfaaqkk3JFuBGHHAQz-6" edge="1">
          <mxGeometry relative="1" as="geometry" />
        </mxCell>
        <mxCell id="nfv_wwdXfXc1_VH7iOFV-14" value="ProductB2" style="html=1;whiteSpace=wrap;fontFamily=Helvetica;fontSize=12;textShadow=0;labelBorderColor=none;horizontal=1;spacingTop=0;fillColor=#e1d5e7;strokeColor=#9673a6;" parent="WIyWlLk6GJQsqaUBKTNV-1" vertex="1">
          <mxGeometry x="490" y="470" width="110" height="50" as="geometry" />
        </mxCell>
        <mxCell id="uftcxJf9mHdkzfCCdiwy-3" style="edgeStyle=orthogonalEdgeStyle;rounded=0;orthogonalLoop=1;jettySize=auto;html=1;" parent="WIyWlLk6GJQsqaUBKTNV-1" source="nfv_wwdXfXc1_VH7iOFV-15" target="Cddfaaqkk3JFuBGHHAQz-6" edge="1">
          <mxGeometry relative="1" as="geometry" />
        </mxCell>
        <mxCell id="nfv_wwdXfXc1_VH7iOFV-15" value="ProductB1" style="html=1;whiteSpace=wrap;fontFamily=Helvetica;fontSize=12;textShadow=0;labelBorderColor=none;horizontal=1;spacingTop=0;fillColor=#d5e8d4;strokeColor=#82b366;" parent="WIyWlLk6GJQsqaUBKTNV-1" vertex="1">
          <mxGeometry x="660" y="470" width="110" height="50" as="geometry" />
        </mxCell>
        <mxCell id="uftcxJf9mHdkzfCCdiwy-7" style="edgeStyle=orthogonalEdgeStyle;rounded=0;orthogonalLoop=1;jettySize=auto;html=1;entryX=0.5;entryY=1;entryDx=0;entryDy=0;fillColor=#d5e8d4;strokeColor=#82b366;" parent="WIyWlLk6GJQsqaUBKTNV-1" source="nfv_wwdXfXc1_VH7iOFV-16" target="nfv_wwdXfXc1_VH7iOFV-13" edge="1">
          <mxGeometry relative="1" as="geometry" />
        </mxCell>
        <mxCell id="uftcxJf9mHdkzfCCdiwy-8" style="edgeStyle=orthogonalEdgeStyle;rounded=0;orthogonalLoop=1;jettySize=auto;html=1;entryX=0.5;entryY=1;entryDx=0;entryDy=0;fillColor=#d5e8d4;strokeColor=#82b366;" parent="WIyWlLk6GJQsqaUBKTNV-1" source="nfv_wwdXfXc1_VH7iOFV-16" target="nfv_wwdXfXc1_VH7iOFV-15" edge="1">
          <mxGeometry relative="1" as="geometry">
            <Array as="points">
              <mxPoint x="200" y="560" />
              <mxPoint x="715" y="560" />
            </Array>
          </mxGeometry>
        </mxCell>
        <mxCell id="nfv_wwdXfXc1_VH7iOFV-16" value="concreteFactory1" style="swimlane;fontStyle=0;childLayout=stackLayout;horizontal=1;startSize=26;fillColor=#d5e8d4;horizontalStack=0;resizeParent=1;resizeParentMax=0;resizeLast=0;collapsible=1;marginBottom=0;whiteSpace=wrap;html=1;fontFamily=Helvetica;fontSize=12;textShadow=0;labelBorderColor=none;spacingTop=0;strokeColor=#82b366;" parent="WIyWlLk6GJQsqaUBKTNV-1" vertex="1">
          <mxGeometry x="35" y="600" width="330" height="78" as="geometry" />
        </mxCell>
        <mxCell id="nfv_wwdXfXc1_VH7iOFV-17" value="createproductA():ProductA" style="text;strokeColor=none;fillColor=none;align=left;verticalAlign=top;spacingLeft=4;spacingRight=4;overflow=hidden;rotatable=0;points=[[0,0.5],[1,0.5]];portConstraint=eastwest;whiteSpace=wrap;html=1;fontFamily=Helvetica;fontSize=12;textShadow=0;labelBorderColor=none;horizontal=1;spacingTop=0;" parent="nfv_wwdXfXc1_VH7iOFV-16" vertex="1">
          <mxGeometry y="26" width="330" height="26" as="geometry" />
        </mxCell>
        <mxCell id="nfv_wwdXfXc1_VH7iOFV-18" value="createproductB():ProductB" style="text;strokeColor=none;fillColor=none;align=left;verticalAlign=top;spacingLeft=4;spacingRight=4;overflow=hidden;rotatable=0;points=[[0,0.5],[1,0.5]];portConstraint=eastwest;whiteSpace=wrap;html=1;fontFamily=Helvetica;fontSize=12;textShadow=0;labelBorderColor=none;horizontal=1;spacingTop=0;" parent="nfv_wwdXfXc1_VH7iOFV-16" vertex="1">
          <mxGeometry y="52" width="330" height="26" as="geometry" />
        </mxCell>
        <mxCell id="uftcxJf9mHdkzfCCdiwy-9" style="edgeStyle=orthogonalEdgeStyle;rounded=0;orthogonalLoop=1;jettySize=auto;html=1;entryX=0.5;entryY=1;entryDx=0;entryDy=0;fillColor=#e1d5e7;strokeColor=#9673a6;" parent="WIyWlLk6GJQsqaUBKTNV-1" source="nfv_wwdXfXc1_VH7iOFV-20" target="nfv_wwdXfXc1_VH7iOFV-14" edge="1">
          <mxGeometry relative="1" as="geometry">
            <Array as="points">
              <mxPoint x="630" y="580" />
              <mxPoint x="545" y="580" />
            </Array>
          </mxGeometry>
        </mxCell>
        <mxCell id="uftcxJf9mHdkzfCCdiwy-10" style="edgeStyle=orthogonalEdgeStyle;rounded=0;orthogonalLoop=1;jettySize=auto;html=1;entryX=0.5;entryY=1;entryDx=0;entryDy=0;fillColor=#e1d5e7;strokeColor=#9673a6;" parent="WIyWlLk6GJQsqaUBKTNV-1" source="nfv_wwdXfXc1_VH7iOFV-20" target="nfv_wwdXfXc1_VH7iOFV-12" edge="1">
          <mxGeometry relative="1" as="geometry">
            <Array as="points">
              <mxPoint x="630" y="580" />
              <mxPoint x="125" y="580" />
            </Array>
          </mxGeometry>
        </mxCell>
        <mxCell id="nfv_wwdXfXc1_VH7iOFV-20" value="ConcreteFactory2" style="swimlane;fontStyle=0;childLayout=stackLayout;horizontal=1;startSize=26;fillColor=#e1d5e7;horizontalStack=0;resizeParent=1;resizeParentMax=0;resizeLast=0;collapsible=1;marginBottom=0;whiteSpace=wrap;html=1;fontFamily=Helvetica;fontSize=12;textShadow=0;labelBorderColor=none;spacingTop=0;strokeColor=#9673a6;" parent="WIyWlLk6GJQsqaUBKTNV-1" vertex="1">
          <mxGeometry x="465" y="600" width="330" height="78" as="geometry" />
        </mxCell>
        <mxCell id="nfv_wwdXfXc1_VH7iOFV-21" value="createproductA():ProductA" style="text;align=left;verticalAlign=top;spacingLeft=4;spacingRight=4;overflow=hidden;rotatable=0;points=[[0,0.5],[1,0.5]];portConstraint=eastwest;whiteSpace=wrap;html=1;fontFamily=Helvetica;fontSize=12;textShadow=0;labelBorderColor=none;horizontal=1;spacingTop=0;" parent="nfv_wwdXfXc1_VH7iOFV-20" vertex="1">
          <mxGeometry y="26" width="330" height="26" as="geometry" />
        </mxCell>
        <mxCell id="nfv_wwdXfXc1_VH7iOFV-22" value="createproductB():ProductB" style="text;align=left;verticalAlign=top;spacingLeft=4;spacingRight=4;overflow=hidden;rotatable=0;points=[[0,0.5],[1,0.5]];portConstraint=eastwest;whiteSpace=wrap;html=1;fontFamily=Helvetica;fontSize=12;textShadow=0;labelBorderColor=none;horizontal=1;spacingTop=0;" parent="nfv_wwdXfXc1_VH7iOFV-20" vertex="1">
          <mxGeometry y="52" width="330" height="26" as="geometry" />
        </mxCell>
        <mxCell id="nfv_wwdXfXc1_VH7iOFV-25" style="edgeStyle=orthogonalEdgeStyle;rounded=0;orthogonalLoop=1;jettySize=auto;html=1;exitX=1;exitY=0.25;exitDx=0;exitDy=0;entryX=0.5;entryY=0;entryDx=0;entryDy=0;fontFamily=Helvetica;fontSize=12;textShadow=0;labelBorderColor=none;horizontal=1;spacingTop=0;" parent="WIyWlLk6GJQsqaUBKTNV-1" source="nfv_wwdXfXc1_VH7iOFV-0" target="nfv_wwdXfXc1_VH7iOFV-4" edge="1">
          <mxGeometry relative="1" as="geometry">
            <Array as="points">
              <mxPoint x="296" y="250" />
              <mxPoint x="428" y="250" />
            </Array>
          </mxGeometry>
        </mxCell>
        <mxCell id="nfv_wwdXfXc1_VH7iOFV-26" value="&amp;lt;&amp;lt;import&amp;gt;&amp;gt;" style="edgeLabel;html=1;align=center;verticalAlign=middle;resizable=0;points=[];fontFamily=Helvetica;fontSize=12;textShadow=0;labelBorderColor=none;horizontal=1;spacingTop=0;" parent="nfv_wwdXfXc1_VH7iOFV-25" connectable="0" vertex="1">
          <mxGeometry x="-0.1002" y="-1" relative="1" as="geometry">
            <mxPoint x="-4" y="-1" as="offset" />
          </mxGeometry>
        </mxCell>
        <mxCell id="Cddfaaqkk3JFuBGHHAQz-0" value="AbstractProductA" style="swimlane;fontStyle=0;childLayout=stackLayout;horizontal=1;startSize=26;fillColor=none;horizontalStack=0;resizeParent=1;resizeParentMax=0;resizeLast=0;collapsible=1;marginBottom=0;whiteSpace=wrap;html=1;fontFamily=Helvetica;fontSize=12;textShadow=0;labelBorderColor=none;spacingTop=0;" parent="WIyWlLk6GJQsqaUBKTNV-1" vertex="1">
          <mxGeometry x="146" y="370" width="140" height="52" as="geometry" />
        </mxCell>
        <mxCell id="Cddfaaqkk3JFuBGHHAQz-15" value="args" style="text;strokeColor=none;fillColor=none;align=left;verticalAlign=top;spacingLeft=4;spacingRight=4;overflow=hidden;rotatable=0;points=[[0,0.5],[1,0.5]];portConstraint=eastwest;whiteSpace=wrap;html=1;fontFamily=Helvetica;fontSize=12;textShadow=0;labelBorderColor=none;horizontal=1;spacingTop=0;" parent="Cddfaaqkk3JFuBGHHAQz-0" vertex="1">
          <mxGeometry y="26" width="140" height="26" as="geometry" />
        </mxCell>
        <mxCell id="Cddfaaqkk3JFuBGHHAQz-6" value="AbstractProductB" style="swimlane;fontStyle=0;childLayout=stackLayout;horizontal=1;startSize=26;fillColor=none;horizontalStack=0;resizeParent=1;resizeParentMax=0;resizeLast=0;collapsible=1;marginBottom=0;whiteSpace=wrap;html=1;fontFamily=Helvetica;fontSize=12;textShadow=0;labelBorderColor=none;spacingTop=0;" parent="WIyWlLk6GJQsqaUBKTNV-1" vertex="1">
          <mxGeometry x="560" y="370" width="140" height="52" as="geometry">
            <mxRectangle x="720" y="201" width="70" height="30" as="alternateBounds" />
          </mxGeometry>
        </mxCell>
        <mxCell id="Cddfaaqkk3JFuBGHHAQz-16" value="args" style="text;strokeColor=none;fillColor=none;align=left;verticalAlign=top;spacingLeft=4;spacingRight=4;overflow=hidden;rotatable=0;points=[[0,0.5],[1,0.5]];portConstraint=eastwest;whiteSpace=wrap;html=1;fontFamily=Helvetica;fontSize=12;textShadow=0;labelBorderColor=none;horizontal=1;spacingTop=0;" parent="Cddfaaqkk3JFuBGHHAQz-6" vertex="1">
          <mxGeometry y="26" width="140" height="26" as="geometry" />
        </mxCell>
      </root>
    </mxGraphModel>
  </diagram>
</mxfile>
